<mxfile host="app.diagrams.net" modified="2022-05-23T15:25:20.206Z" agent="5.0 (Windows NT 10.0; Win64; x64) AppleWebKit/537.36 (KHTML, like Gecko) Chrome/101.0.4951.67 Safari/537.36" etag="62k8-s02VWOahIWLqpWl" version="18.0.7" type="github">
  <diagram id="jtuyKHdaZjFFjnKCldut" name="Page-1">
    <mxGraphModel dx="1021" dy="520" grid="1" gridSize="10" guides="1" tooltips="1" connect="1" arrows="1" fold="1" page="1" pageScale="1" pageWidth="827" pageHeight="1169" math="0" shadow="0">
      <root>
        <mxCell id="0" />
        <mxCell id="1" parent="0" />
        <mxCell id="v7JBk7lIwhjM9JGJNWyC-1" value="&lt;b&gt;&lt;font style=&quot;font-size: 20px;&quot;&gt;Aktivitas Membuat Struk Belanja Pembeli&lt;/font&gt;&lt;/b&gt;" style="rounded=0;whiteSpace=wrap;html=1;" vertex="1" parent="1">
          <mxGeometry x="40" y="40" width="760" height="40" as="geometry" />
        </mxCell>
        <mxCell id="v7JBk7lIwhjM9JGJNWyC-2" value="Kasir" style="rounded=0;whiteSpace=wrap;html=1;fontSize=20;" vertex="1" parent="1">
          <mxGeometry x="40" y="80" width="390" height="40" as="geometry" />
        </mxCell>
        <mxCell id="v7JBk7lIwhjM9JGJNWyC-3" value="Pembeli" style="rounded=0;whiteSpace=wrap;html=1;fontSize=20;" vertex="1" parent="1">
          <mxGeometry x="410" y="80" width="390" height="40" as="geometry" />
        </mxCell>
        <mxCell id="v7JBk7lIwhjM9JGJNWyC-4" value="" style="rounded=0;whiteSpace=wrap;html=1;fontSize=20;" vertex="1" parent="1">
          <mxGeometry x="40" y="120" width="370" height="840" as="geometry" />
        </mxCell>
        <mxCell id="v7JBk7lIwhjM9JGJNWyC-5" value="" style="rounded=0;whiteSpace=wrap;html=1;fontSize=20;" vertex="1" parent="1">
          <mxGeometry x="410" y="120" width="390" height="840" as="geometry" />
        </mxCell>
        <mxCell id="v7JBk7lIwhjM9JGJNWyC-10" style="edgeStyle=orthogonalEdgeStyle;rounded=0;orthogonalLoop=1;jettySize=auto;html=1;exitX=0.5;exitY=1;exitDx=0;exitDy=0;entryX=0.5;entryY=0;entryDx=0;entryDy=0;fontSize=14;" edge="1" parent="1" source="v7JBk7lIwhjM9JGJNWyC-6" target="v7JBk7lIwhjM9JGJNWyC-7">
          <mxGeometry relative="1" as="geometry" />
        </mxCell>
        <mxCell id="v7JBk7lIwhjM9JGJNWyC-6" value="" style="ellipse;whiteSpace=wrap;html=1;aspect=fixed;fontSize=20;fillColor=#000000;" vertex="1" parent="1">
          <mxGeometry x="210" y="150" width="30" height="30" as="geometry" />
        </mxCell>
        <mxCell id="v7JBk7lIwhjM9JGJNWyC-11" style="edgeStyle=orthogonalEdgeStyle;rounded=0;orthogonalLoop=1;jettySize=auto;html=1;exitX=0.5;exitY=1;exitDx=0;exitDy=0;entryX=0.5;entryY=0;entryDx=0;entryDy=0;fontSize=14;" edge="1" parent="1" source="v7JBk7lIwhjM9JGJNWyC-7" target="v7JBk7lIwhjM9JGJNWyC-8">
          <mxGeometry relative="1" as="geometry" />
        </mxCell>
        <mxCell id="v7JBk7lIwhjM9JGJNWyC-7" value="&lt;font style=&quot;font-size: 14px;&quot;&gt;Login&lt;/font&gt;" style="rounded=1;whiteSpace=wrap;html=1;fontSize=20;fillColor=#FFFFFF;" vertex="1" parent="1">
          <mxGeometry x="165" y="220" width="120" height="60" as="geometry" />
        </mxCell>
        <mxCell id="v7JBk7lIwhjM9JGJNWyC-17" style="edgeStyle=orthogonalEdgeStyle;rounded=0;orthogonalLoop=1;jettySize=auto;html=1;exitX=1;exitY=0.5;exitDx=0;exitDy=0;entryX=0;entryY=0.5;entryDx=0;entryDy=0;fontSize=14;" edge="1" parent="1" source="v7JBk7lIwhjM9JGJNWyC-8" target="v7JBk7lIwhjM9JGJNWyC-13">
          <mxGeometry relative="1" as="geometry" />
        </mxCell>
        <mxCell id="v7JBk7lIwhjM9JGJNWyC-8" value="&lt;font style=&quot;font-size: 14px;&quot;&gt;Akses Fitur Menu&lt;/font&gt;" style="rounded=1;whiteSpace=wrap;html=1;fontSize=20;fillColor=#FFFFFF;" vertex="1" parent="1">
          <mxGeometry x="165" y="310" width="120" height="60" as="geometry" />
        </mxCell>
        <mxCell id="v7JBk7lIwhjM9JGJNWyC-9" style="edgeStyle=orthogonalEdgeStyle;rounded=0;orthogonalLoop=1;jettySize=auto;html=1;exitX=0.5;exitY=1;exitDx=0;exitDy=0;fontSize=14;" edge="1" parent="1" source="v7JBk7lIwhjM9JGJNWyC-6" target="v7JBk7lIwhjM9JGJNWyC-6">
          <mxGeometry relative="1" as="geometry" />
        </mxCell>
        <mxCell id="v7JBk7lIwhjM9JGJNWyC-16" style="edgeStyle=orthogonalEdgeStyle;rounded=0;orthogonalLoop=1;jettySize=auto;html=1;exitX=0.5;exitY=1;exitDx=0;exitDy=0;entryX=1;entryY=0.5;entryDx=0;entryDy=0;fontSize=14;" edge="1" parent="1" source="v7JBk7lIwhjM9JGJNWyC-13" target="v7JBk7lIwhjM9JGJNWyC-15">
          <mxGeometry relative="1" as="geometry" />
        </mxCell>
        <mxCell id="v7JBk7lIwhjM9JGJNWyC-13" value="&lt;font style=&quot;font-size: 14px;&quot;&gt;Checkout Barang&lt;/font&gt;" style="rounded=1;whiteSpace=wrap;html=1;fontSize=20;fillColor=#FFFFFF;" vertex="1" parent="1">
          <mxGeometry x="545" y="220" width="120" height="60" as="geometry" />
        </mxCell>
        <mxCell id="v7JBk7lIwhjM9JGJNWyC-19" style="edgeStyle=orthogonalEdgeStyle;rounded=0;orthogonalLoop=1;jettySize=auto;html=1;exitX=0.5;exitY=1;exitDx=0;exitDy=0;entryX=0.5;entryY=0;entryDx=0;entryDy=0;fontSize=14;" edge="1" parent="1" source="v7JBk7lIwhjM9JGJNWyC-15" target="v7JBk7lIwhjM9JGJNWyC-18">
          <mxGeometry relative="1" as="geometry" />
        </mxCell>
        <mxCell id="v7JBk7lIwhjM9JGJNWyC-15" value="&lt;font style=&quot;font-size: 14px;&quot;&gt;Menerima Barang&lt;/font&gt;" style="rounded=1;whiteSpace=wrap;html=1;fontSize=20;fillColor=#FFFFFF;" vertex="1" parent="1">
          <mxGeometry x="164" y="400" width="120" height="60" as="geometry" />
        </mxCell>
        <mxCell id="v7JBk7lIwhjM9JGJNWyC-21" style="edgeStyle=orthogonalEdgeStyle;rounded=0;orthogonalLoop=1;jettySize=auto;html=1;exitX=1;exitY=0.5;exitDx=0;exitDy=0;entryX=0;entryY=0.5;entryDx=0;entryDy=0;fontSize=14;" edge="1" parent="1" source="v7JBk7lIwhjM9JGJNWyC-18" target="v7JBk7lIwhjM9JGJNWyC-20">
          <mxGeometry relative="1" as="geometry" />
        </mxCell>
        <mxCell id="v7JBk7lIwhjM9JGJNWyC-18" value="&lt;span style=&quot;font-size: 14px;&quot;&gt;Akses Fitur Payment&lt;/span&gt;" style="rounded=1;whiteSpace=wrap;html=1;fontSize=20;fillColor=#FFFFFF;" vertex="1" parent="1">
          <mxGeometry x="164" y="495" width="120" height="60" as="geometry" />
        </mxCell>
        <mxCell id="v7JBk7lIwhjM9JGJNWyC-23" style="edgeStyle=orthogonalEdgeStyle;rounded=0;orthogonalLoop=1;jettySize=auto;html=1;exitX=0.5;exitY=1;exitDx=0;exitDy=0;entryX=1;entryY=0.5;entryDx=0;entryDy=0;fontSize=14;" edge="1" parent="1" source="v7JBk7lIwhjM9JGJNWyC-20" target="v7JBk7lIwhjM9JGJNWyC-22">
          <mxGeometry relative="1" as="geometry" />
        </mxCell>
        <mxCell id="v7JBk7lIwhjM9JGJNWyC-20" value="&lt;span style=&quot;font-size: 14px;&quot;&gt;Memberikan Nominal Tagihan&lt;/span&gt;" style="rounded=1;whiteSpace=wrap;html=1;fontSize=20;fillColor=#FFFFFF;" vertex="1" parent="1">
          <mxGeometry x="544" y="495" width="120" height="60" as="geometry" />
        </mxCell>
        <mxCell id="v7JBk7lIwhjM9JGJNWyC-26" style="edgeStyle=orthogonalEdgeStyle;rounded=0;orthogonalLoop=1;jettySize=auto;html=1;exitX=0.5;exitY=1;exitDx=0;exitDy=0;entryX=0.5;entryY=0;entryDx=0;entryDy=0;fontSize=14;" edge="1" parent="1" source="v7JBk7lIwhjM9JGJNWyC-22" target="v7JBk7lIwhjM9JGJNWyC-24">
          <mxGeometry relative="1" as="geometry" />
        </mxCell>
        <mxCell id="v7JBk7lIwhjM9JGJNWyC-22" value="&lt;span style=&quot;font-size: 14px;&quot;&gt;Menerima Nominal Tagihan&lt;/span&gt;" style="rounded=1;whiteSpace=wrap;html=1;fontSize=20;fillColor=#FFFFFF;" vertex="1" parent="1">
          <mxGeometry x="164" y="570" width="120" height="60" as="geometry" />
        </mxCell>
        <mxCell id="v7JBk7lIwhjM9JGJNWyC-28" style="edgeStyle=orthogonalEdgeStyle;rounded=0;orthogonalLoop=1;jettySize=auto;html=1;exitX=0.5;exitY=1;exitDx=0;exitDy=0;entryX=0.5;entryY=0;entryDx=0;entryDy=0;fontSize=12;" edge="1" parent="1" source="v7JBk7lIwhjM9JGJNWyC-24" target="v7JBk7lIwhjM9JGJNWyC-27">
          <mxGeometry relative="1" as="geometry" />
        </mxCell>
        <mxCell id="v7JBk7lIwhjM9JGJNWyC-24" value="&lt;span style=&quot;font-size: 14px;&quot;&gt;Cetak Struk Belanja&lt;/span&gt;" style="rounded=1;whiteSpace=wrap;html=1;fontSize=20;fillColor=#FFFFFF;" vertex="1" parent="1">
          <mxGeometry x="164" y="660" width="120" height="60" as="geometry" />
        </mxCell>
        <mxCell id="v7JBk7lIwhjM9JGJNWyC-30" style="edgeStyle=orthogonalEdgeStyle;rounded=0;orthogonalLoop=1;jettySize=auto;html=1;exitX=1;exitY=0.5;exitDx=0;exitDy=0;fontSize=12;" edge="1" parent="1" source="v7JBk7lIwhjM9JGJNWyC-27" target="v7JBk7lIwhjM9JGJNWyC-29">
          <mxGeometry relative="1" as="geometry" />
        </mxCell>
        <mxCell id="v7JBk7lIwhjM9JGJNWyC-27" value="&lt;font style=&quot;font-size: 12px;&quot;&gt;Memberikan Barang + Struk Belanja&lt;/font&gt;" style="rounded=1;whiteSpace=wrap;html=1;fontSize=20;fillColor=#FFFFFF;" vertex="1" parent="1">
          <mxGeometry x="164" y="750" width="120" height="60" as="geometry" />
        </mxCell>
        <mxCell id="v7JBk7lIwhjM9JGJNWyC-34" style="edgeStyle=orthogonalEdgeStyle;rounded=0;orthogonalLoop=1;jettySize=auto;html=1;exitX=0.5;exitY=1;exitDx=0;exitDy=0;entryX=0.5;entryY=0;entryDx=0;entryDy=0;fontSize=12;" edge="1" parent="1" source="v7JBk7lIwhjM9JGJNWyC-29" target="v7JBk7lIwhjM9JGJNWyC-33">
          <mxGeometry relative="1" as="geometry" />
        </mxCell>
        <mxCell id="v7JBk7lIwhjM9JGJNWyC-29" value="&lt;span style=&quot;font-size: 12px;&quot;&gt;Menerima Barang + Struk Belanja&lt;/span&gt;" style="rounded=1;whiteSpace=wrap;html=1;fontSize=20;fillColor=#FFFFFF;" vertex="1" parent="1">
          <mxGeometry x="544" y="750" width="120" height="60" as="geometry" />
        </mxCell>
        <mxCell id="v7JBk7lIwhjM9JGJNWyC-33" value="" style="ellipse;shape=doubleEllipse;whiteSpace=wrap;html=1;aspect=fixed;fontSize=12;fillColor=default;gradientColor=none;" vertex="1" parent="1">
          <mxGeometry x="584" y="850" width="40" height="40" as="geometry" />
        </mxCell>
      </root>
    </mxGraphModel>
  </diagram>
</mxfile>
